<svg xmlns="http://www.w3.org/2000/svg" xmlns:svg="http://www.w3.org/2000/svg" xmlns:xlink="http://www.w3.org/1999/xlink" version="1.0" height="541.5pt" width="690.5pt" viewBox="237.8985 472.5 698.5 547.5" ><defs><style type="text/css">
            @font-face {
                font-family: 'noto_regular';
                src: url('https://app.creately.com/diagram/assets/fonts/noto/noto-regular.woff') format('woff'),
                     url('https://app.creately.com/diagram/assets/fonts/noto/noto-regular.woff2') format('woff2');
                font-weight: normal;
                font-style: normal;
            }
        p {
            margin: 0;
        }
        </style></defs><defs><style>
            span{ display: inline-block; }
        </style></defs><g id="1hmseh2hv1"><g transform="translate(248 512)"><ellipse cx="20.3985" cy="10.10075" rx="10.19925" ry="10.10075" fill="rgba(255,255,255,1)" stroke="#5e5ca7" stroke-width="1.5" stroke-linecap="round" stroke-linejoin="round"/><path d="M 20.3985,20.2015 L 20.3985,48.483599999999996 L 40.797,80.806 M 20.3985,48.483599999999996 L 0,80.806 M 2.03985,30.30225 L 38.757149999999996,30.30225" fill="none" stroke="#5e5ca7" stroke-width="1.5" stroke-linecap="round" stroke-linejoin="round"/><rect x="0" y="0" width="40.797" height="80.806" fill="rgba(255,255,255,0.01)" stroke="rgba(255,255,255,0.01)" stroke-width="1.5" stroke-linecap="round" stroke-linejoin="round"/></g><g transform="translate(242.8985, 597.806) rotate(0, 25.5, 0)" width="51" height="64"><text text-decoration="none" x="13.5" fill="rgb(0, 0, 0)" font-size="9pt" font-family="Arial"  y="11">New&#160;</text><text text-decoration="none" x="3" fill="rgb(0, 0, 0)" font-size="9pt" font-family="Arial"  y="26">member</text><text text-decoration="none" x="48" fill="rgb(0, 0, 0)" font-size="9pt" font-family="Arial"  y="26"></text><text text-decoration="none" x="25.5" fill="#4b4b4b" font-size="10pt" font-family="noto_regular"  y="45"></text></g></g><g id="5zinmdct64"><g transform="translate(466.5 475.5)"><ellipse cx="45.5" cy="30.5" rx="45.5" ry="30.5" fill="rgba(255,255,255,1)" stroke="#5e5ca7" stroke-width="1.5" stroke-linecap="round" stroke-linejoin="round"/></g><g transform="translate(486.5, 496.5) rotate(0, 25.5, 9.5)" width="51" height="19"><text text-decoration="none" x="3.5" fill="rgb(0, 0, 0)" font-size="9pt" font-family="Arial"  y="15">Sign&#160;</text><text text-decoration="none" x="30.5" fill="rgb(0, 0, 0)" font-size="9pt" font-family="Arial"  y="15">up&#160;</text><text text-decoration="none" x="47.5" fill="#4b4b4b" font-size="10pt" font-family="noto_regular"  y="15"></text></g></g><g id="134bkz5kcm"><g transform="translate(471 577)"><ellipse cx="45.5" cy="30.5" rx="45.5" ry="30.5" fill="rgba(255,255,255,1)" stroke="#5e5ca7" stroke-width="1.5" stroke-linecap="round" stroke-linejoin="round"/></g><g transform="translate(500, 598) rotate(0, 16.5, 9.5)" width="33" height="19"><text text-decoration="none" x="1.5" fill="rgb(0, 0, 0)" font-size="9pt" font-family="Arial"  y="15">Login</text><text text-decoration="none" x="31.5" fill="#4b4b4b" font-size="10pt" font-family="noto_regular"  y="15"></text></g></g><g id="7x8eqx9mcl"><g transform="translate(475 674)"><ellipse cx="45.5" cy="30.5" rx="45.5" ry="30.5" fill="rgba(255,255,255,1)" stroke="#5e5ca7" stroke-width="1.5" stroke-linecap="round" stroke-linejoin="round"/></g><g transform="translate(503, 687.5) rotate(0, 17.5, 17)" width="35" height="34"><text text-decoration="none" x="2" fill="rgb(0, 0, 0)" font-size="9pt" font-family="Arial"  y="11">select</text><text text-decoration="none" x="33" fill="rgb(0, 0, 0)" font-size="9pt" font-family="Arial"  y="11"></text><text text-decoration="none" x="1" fill="rgb(0, 0, 0)" font-size="9pt" font-family="Arial"  y="30">books</text><text text-decoration="none" x="34" fill="#4b4b4b" font-size="10pt" font-family="noto_regular"  y="30"></text></g></g><g id="2fpskxz7ed"><g transform="translate(474.20000000000005 770)"><ellipse cx="49.00000250339508" cy="30.5" rx="49.00000250339508" ry="30.5" fill="rgba(255,255,255,1)" stroke="#5e5ca7" stroke-width="1.5" stroke-linecap="round" stroke-linejoin="round"/></g><g transform="translate(493.2000025033951, 791) rotate(0, 30, 9.5)" width="60" height="19"><text text-decoration="none" x="3" fill="rgb(0, 0, 0)" font-size="9pt" font-family="Arial"  y="15">Get&#160;</text><text text-decoration="none" x="24" fill="rgb(0, 0, 0)" font-size="9pt" font-family="Arial"  y="15">books</text><text text-decoration="none" x="57" fill="#4b4b4b" font-size="10pt" font-family="noto_regular"  y="15"></text></g></g><g id="mlw75e9gtp"><g transform="translate(478 861.95)"><ellipse cx="45.5" cy="30.5" rx="45.5" ry="30.5" fill="rgba(255,255,255,1)" stroke="#5e5ca7" stroke-width="1.5" stroke-linecap="round" stroke-linejoin="round"/></g><g transform="translate(502, 875.45) rotate(0, 21.5, 17)" width="43" height="34"><text text-decoration="none" x="2.5" fill="rgb(0, 0, 0)" font-size="9pt" font-family="Arial"  y="11">update</text><text text-decoration="none" x="40.5" fill="rgb(0, 0, 0)" font-size="9pt" font-family="Arial"  y="11"></text><text text-decoration="none" x="4.5" fill="rgb(0, 0, 0)" font-size="9pt" font-family="Arial"  y="30">status</text><text text-decoration="none" x="38.5" fill="#4b4b4b" font-size="10pt" font-family="noto_regular"  y="30"></text></g></g><g id="1ic66nmfyi"><g transform="translate(483 956)"><ellipse cx="45.5" cy="30.5" rx="45.5" ry="30.5" fill="rgba(255,255,255,1)" stroke="#5e5ca7" stroke-width="1.5" stroke-linecap="round" stroke-linejoin="round"/></g><g transform="translate(509.5, 969.5) rotate(0, 19, 17)" width="38" height="34"><text text-decoration="none" x="3" fill="rgb(0, 0, 0)" font-size="9pt" font-family="Arial"  y="11">return</text><text text-decoration="none" x="35" fill="rgb(0, 0, 0)" font-size="9pt" font-family="Arial"  y="11"></text><text text-decoration="none" x="5.5" fill="rgb(0, 0, 0)" font-size="9pt" font-family="Arial"  y="30">book</text><text text-decoration="none" x="32.5" fill="#4b4b4b" font-size="10pt" font-family="noto_regular"  y="30"></text></g></g><g id="2axsx20vbg"><g transform="translate(250 736)"><ellipse cx="20.3985" cy="10.10075" rx="10.19925" ry="10.10075" fill="rgba(255,255,255,1)" stroke="#5e5ca7" stroke-width="1.5" stroke-linecap="round" stroke-linejoin="round"/><path d="M 20.3985,20.2015 L 20.3985,48.483599999999996 L 40.797,80.806 M 20.3985,48.483599999999996 L 0,80.806 M 2.03985,30.30225 L 38.757149999999996,30.30225" fill="none" stroke="#5e5ca7" stroke-width="1.5" stroke-linecap="round" stroke-linejoin="round"/><rect x="0" y="0" width="40.797" height="80.806" fill="rgba(255,255,255,0.01)" stroke="rgba(255,255,255,0.01)" stroke-width="1.5" stroke-linecap="round" stroke-linejoin="round"/></g><g transform="translate(244.8985, 821.806) rotate(0, 25.5, 0)" width="51" height="34"><text text-decoration="none" x="16.5" fill="rgb(0, 0, 0)" font-size="9pt" font-family="Arial"  y="11">Old&#160;</text><text text-decoration="none" x="3" fill="rgb(0, 0, 0)" font-size="9pt" font-family="Arial"  y="30">member</text><text text-decoration="none" x="48" fill="#4b4b4b" font-size="10pt" font-family="noto_regular"  y="30"></text></g></g><g id="2pnjf9v0vz"><g><path d="M 274,561 L 467.5,501.5" fill="none" stroke="#000000" stroke-width="1" stroke-linecap="round" stroke-linejoin="round"/><path d="M 467.5,501.5 L 457.4984183056414,498.5597227442384 L 460.87840960477394,509.5517952884763 Z" fill="rgb(0,0,0)" stroke="#000000" stroke-width="1" stroke-linecap="round" stroke-linejoin="round"/></g></g><g id="2o7zirha0r"><g transform="translate(872 671)"><ellipse cx="20.3985" cy="10.10075" rx="10.19925" ry="10.10075" fill="rgba(255,255,255,1)" stroke="#5e5ca7" stroke-width="1.5" stroke-linecap="round" stroke-linejoin="round"/><path d="M 20.3985,20.2015 L 20.3985,48.483599999999996 L 40.797,80.806 M 20.3985,48.483599999999996 L 0,80.806 M 2.03985,30.30225 L 38.757149999999996,30.30225" fill="none" stroke="#5e5ca7" stroke-width="1.5" stroke-linecap="round" stroke-linejoin="round"/><rect x="0" y="0" width="40.797" height="80.806" fill="rgba(255,255,255,0.01)" stroke="rgba(255,255,255,0.01)" stroke-width="1.5" stroke-linecap="round" stroke-linejoin="round"/></g><g transform="translate(851.3985, 756.806) rotate(0, 41, 0)" width="82" height="49"><text text-decoration="none" x="15" fill="rgb(0, 0, 0)" font-size="9pt" font-family="Arial"  y="11">Database</text><text text-decoration="none" x="67" fill="rgb(0, 0, 0)" font-size="9pt" font-family="Arial"  y="11"></text><text text-decoration="none" x="3.5" fill="rgb(0, 0, 0)" font-size="9pt" font-family="Arial"  y="30">Administrator</text><text text-decoration="none" x="78.5" fill="#4b4b4b" font-size="10pt" font-family="noto_regular"  y="30"></text></g></g><g id="2hagl57tfq"><g><path d="M 845,664 L 557,506" fill="none" stroke="#000000" stroke-width="1" stroke-linecap="round" stroke-linejoin="round"/><path d="M 557,506 L 561.8580799157745,515.2236612178477 L 567.3893912743308,505.1412708933906 Z" fill="rgb(0,0,0)" stroke="#000000" stroke-width="1" stroke-linecap="round" stroke-linejoin="round"/></g></g><g id="ap45qhw4y7"><g><path d="M 276.05,781.85 L 476.55,703.35" fill="none" stroke="#000000" stroke-width="1" stroke-linecap="round" stroke-linejoin="round"/><path d="M 476.55,703.35 L 466.3565295755761,701.1659607521673 L 470.54913579199484,711.874464527861 Z" fill="rgb(0,0,0)" stroke="#000000" stroke-width="1" stroke-linecap="round" stroke-linejoin="round"/></g></g><g id="1hrrrrwp45"><g><path d="M 276,741 L 473,613" fill="none" stroke="#000000" stroke-width="1" stroke-linecap="round" stroke-linejoin="round"/><path d="M 473,613 L 462.5755177315279,612.9161181545912 L 468.84116308874616,622.559337962185 Z" fill="rgb(0,0,0)" stroke="#000000" stroke-width="1" stroke-linecap="round" stroke-linejoin="round"/></g></g><g id="5ask8eca7c"><g><path d="M 275,793 L 476.4,795.85" fill="none" stroke="#000000" stroke-width="1" stroke-linecap="round" stroke-linejoin="round"/><path d="M 476.4,795.85 L 467.7865781228608,789.9775362669404 L 467.6238585652192,801.4763850069475 Z" fill="rgb(0,0,0)" stroke="#000000" stroke-width="1" stroke-linecap="round" stroke-linejoin="round"/></g></g><g id="7m8o6oorbc"><g><path d="M 286,798 L 488,977" fill="none" stroke="#000000" stroke-width="1" stroke-linecap="round" stroke-linejoin="round"/><path d="M 488,977 L 485.30538428697804,966.929453198122 L 477.6784325620452,975.5364043067054 Z" fill="rgb(0,0,0)" stroke="#000000" stroke-width="1" stroke-linecap="round" stroke-linejoin="round"/></g></g><g id="3janlbf5o4"><g><path d="M 857,690 L 564,605" fill="none" stroke="#000000" stroke-width="1" stroke-linecap="round" stroke-linejoin="round"/><path d="M 564,605 L 570.7492918101777,612.9450567518896 L 573.9533660968158,601.9004242108902 Z" fill="rgb(0,0,0)" stroke="#000000" stroke-width="1" stroke-linecap="round" stroke-linejoin="round"/></g></g><g id="3lpe1uarl4"><g><path d="M 847.9,740.8 L 563,888" fill="none" stroke="#000000" stroke-width="1" stroke-linecap="round" stroke-linejoin="round"/><path d="M 563,888 L 573.3543931444775,889.2097145693411 L 568.1673390205614,878.9459691752091 Z" fill="rgb(0,0,0)" stroke="#000000" stroke-width="1" stroke-linecap="round" stroke-linejoin="round"/></g></g><g id="3g9sg81ye5"><g><path d="M 857,765 L 575,985" fill="none" stroke="#000000" stroke-width="1" stroke-linecap="round" stroke-linejoin="round"/><path d="M 575,985 L 585.3929027933334,984.1848691773706 L 578.3192375082983,975.1177164029166 Z" fill="rgb(0,0,0)" stroke="#000000" stroke-width="1" stroke-linecap="round" stroke-linejoin="round"/></g></g><g id="1f05jhrvuw"><g><path d="M 863,697 L 573,796" fill="none" stroke="#000000" stroke-width="1" stroke-linecap="round" stroke-linejoin="round"/><path d="M 573,796 L 583.0870080912819,798.6323249222108 L 579.3716735406524,787.7490216930943 Z" fill="rgb(0,0,0)" stroke="#000000" stroke-width="1" stroke-linecap="round" stroke-linejoin="round"/></g></g></svg>